REM MD5 e3b5ab6c8e2baf21d5e2350c2f9d4c02
FILE "1Xtreme (USA).bin" BINARY
  TRACK 01 MODE2/2352
    INDEX 01 00:00:00
  TRACK 02 AUDIO
    INDEX 00 10:01:56
    INDEX 01 10:05:56
  TRACK 03 AUDIO
    INDEX 01 15:43:07
  TRACK 04 AUDIO
    INDEX 01 21:59:26
  TRACK 05 AUDIO
    INDEX 01 27:08:06
  TRACK 06 AUDIO
    INDEX 01 33:29:12
  TRACK 07 AUDIO
    INDEX 01 39:28:39
  TRACK 08 AUDIO
    INDEX 01 45:25:65
REM LEADOUT 51:23:16
